<!-- icon666.com - MILLIONS vector ICONS FREE --><svg id="Search" enable-background="new 0 0 128 128" viewBox="0 0 128 128" xmlns="http://www.w3.org/2000/svg"><path d="m114 106.9-26.6-26.6c12.6-16.1 11.5-39.5-3.3-54.3-8-8-18.5-12-29-12s-21 4-29 12c-16 16-16 42 0 58 8 8 18.5 12 29 12 8.9 0 17.8-2.9 25.2-8.7l26.6 26.6zm-59-20.9c-8.2 0-16-3.2-21.9-9-12.1-12.1-12.1-31.8 0-43.9 5.9-5.8 13.7-9.1 21.9-9.1s16.1 3.2 21.9 9.1c12.1 12.1 12.1 31.8.1 43.9-5.9 5.8-13.7 9-22 9z" fill="#000000" style="fill: rgb(233, 236, 239);"></path></svg>